<svg xmlns="http://www.w3.org/2000/svg" version="1.1" id="Layer_1" x="0px" y="0px" width="95.86px" height="95.859px" viewBox="-92.146 -27.898 95.86 95.859" enable-background="new -92.146 -27.898 95.86 95.859" xml:space="preserve"><linearGradient id="SVGID_1_" gradientUnits="userSpaceOnUse" x1="-97.4541" y1="-33.2056" x2="-9.9752" y2="54.2733"><stop offset="0" stop-color="#F02349"/><stop offset="0.2049" stop-color="#F1274A"/><stop offset="0.409" stop-color="#F2334F"/><stop offset="0.613" stop-color="#F54756"/><stop offset="0.8156" stop-color="#F96361"/><stop offset="1" stop-color="#FD836D"/></linearGradient><path fill="url(#SVGID_1_)" d="M3.713 53.654c0 7.902-6.406 14.308-14.308 14.308h-67.245c-7.902 0-14.307-6.405-14.307-14.308V-13.59c0-7.901 6.405-14.308 14.307-14.308h67.245c7.901 0 14.308 6.406 14.308 14.308V53.654z"/><path fill="#FFFFFF" d="M-61.689-9.674c2.647 0 4.62 0.75 5.914 2.246 1.296 1.498 1.944 3.397 1.944 5.698v18.479c0.172-0.286 0.891-1.365 2.158-3.236 1.266-1.87 2.086-3.065 2.46-3.583 0.375-0.52 1.108-1.569 2.203-3.153 1.094-1.583 1.928-2.747 2.503-3.497 0.575-0.747 1.353-1.755 2.333-3.021 0.977-1.266 1.883-2.389 2.719-3.367 0.834-0.979 1.713-1.958 2.634-2.938 1.497-1.609 2.765-2.617 3.8-3.021 1.035-0.403 2.764-0.605 5.182-0.605h8.116v0.433c-2.417 2.478-6.03 6.621-10.836 12.436 -4.81 5.816-8.622 10.736-11.442 14.766 0.576 0.863 1.642 2.448 3.195 4.747 1.555 2.304 2.764 4.061 3.626 5.271 0.864 1.21 1.987 2.72 3.368 4.533 1.383 1.812 2.734 3.44 4.059 4.879s2.707 2.763 4.146 3.972c1.497 1.209 3.052 2.017 4.664 2.418 -0.518 2.188-1.338 3.729-2.461 4.621 -1.122 0.893-2.836 1.338-5.137 1.338 -3.283 0-6.045-1.267-8.291-3.801 -6.104-7.08-12.435-15.859-18.997-26.338v29.878h-3.887c-2.648 0-4.606-0.776-5.872-2.331 -1.267-1.555-1.899-3.453-1.899-5.699V-9.674H-61.689z"/></svg>